# Blender v2.82 (sub 7) OBJ File: 'twoTriangle.blend'
# www.blender.org
mtllib cuble.mtl
o Cube
v -1.094161 3.760367 -0.515871
v 0.348836 3.531703 0.849952
v -1.627038 5.489347 0.336579
v -0.184042 5.260683 1.702402
v 0.184042 4.739317 -1.702402
v 1.627038 4.510653 -0.336579
v -0.348836 6.468297 -0.849952
v 1.094161 6.239633 0.515871
vt 0.375000 0.000000
vt 0.625000 0.000000
vt 0.625000 0.250000
vt 0.375000 0.250000
vt 0.625000 0.500000
vt 0.375000 0.500000
vt 0.625000 0.750000
vt 0.375000 0.750000
vt 0.625000 1.000000
vt 0.375000 1.000000
vt 0.125000 0.500000
vt 0.125000 0.750000
vt 0.875000 0.500000
vt 0.875000 0.750000
vn -0.6391 -0.4895 0.5933
vn -0.2664 0.8645 0.4262
vn 0.6391 0.4895 -0.5933
vn 0.2664 -0.8645 -0.4262
vn -0.7215 0.1143 -0.6829
vn 0.7215 -0.1143 0.6829
usemtl None
s off
f 1/1/1 2/2/1 4/3/1 3/4/1
f 3/4/2 4/3/2 8/5/2 7/6/2
f 7/6/3 8/5/3 6/7/3 5/8/3
f 5/8/4 6/7/4 2/9/4 1/10/4
f 3/11/5 7/6/5 5/8/5 1/12/5
f 8/5/6 4/13/6 2/14/6 6/7/6
