# Blender v2.82 (sub 7) OBJ File: ''
# www.blender.org
o Sphere_Sphere.003
v 0.000000 3.951331 0.296311
v 0.000000 4.074067 -0.000000
v 0.000000 3.951331 -0.296311
v 0.281809 3.746585 0.296311
v 0.398538 3.784513 -0.000000
v 0.281809 3.746585 -0.296311
v 0.174167 3.415299 0.296311
v 0.246310 3.316003 -0.000000
v 0.174167 3.415299 -0.296311
v -0.000000 3.655020 0.419047
v -0.174167 3.415299 0.296311
v -0.246310 3.316003 -0.000000
v -0.174167 3.415299 -0.296311
v -0.281809 3.746585 0.296311
v -0.398538 3.784513 -0.000000
v -0.281809 3.746585 -0.296311
v 0.000000 3.655020 -0.419047
vt 0.600000 0.250000
vt 0.600000 0.500000
vt 0.400000 0.500000
vt 0.400000 0.250000
vt 0.600000 0.750000
vt 0.500000 1.000000
vt 0.400000 0.750000
vt 0.500000 0.000000
vt 0.200000 0.500000
vt 0.200000 0.250000
vt 0.300000 1.000000
vt 0.200000 0.750000
vt 0.300000 0.000000
vt 0.000000 0.500000
vt 0.000000 0.250000
vt 0.100000 1.000000
vt 0.000000 0.750000
vt 0.100000 0.000000
vt 1.000000 0.250000
vt 1.000000 0.500000
vt 0.800000 0.500000
vt 0.800000 0.250000
vt 1.000000 0.750000
vt 0.900000 1.000000
vt 0.800000 0.750000
vt 0.900000 0.000000
vt 0.700000 1.000000
vt 0.700000 0.000000
vn 0.5573 0.7671 -0.3177
vn 0.2679 0.3687 0.8901
vn 0.2679 0.3687 -0.8901
vn 0.5573 0.7671 0.3177
vn 0.9018 -0.2930 -0.3177
vn 0.4334 -0.1408 0.8901
vn 0.4334 -0.1408 -0.8901
vn 0.9018 -0.2930 0.3177
vn 0.0000 -0.9482 -0.3177
vn 0.0000 -0.4557 0.8901
vn 0.0000 -0.4557 -0.8901
vn 0.0000 -0.9482 0.3177
vn -0.9018 -0.2930 -0.3177
vn -0.4334 -0.1408 0.8901
vn -0.4334 -0.1408 -0.8901
vn -0.9018 -0.2930 0.3177
vn -0.5573 0.7671 -0.3177
vn -0.2679 0.3687 0.8901
vn -0.2679 0.3687 -0.8901
vn -0.5573 0.7671 0.3177
s off
f 3/1/1 2/2/1 5/3/1 6/4/1
f 1/5/2 10/6/2 4/7/2
f 17/8/3 3/1/3 6/4/3
f 2/2/4 1/5/4 4/7/4 5/3/4
f 6/4/5 5/3/5 8/9/5 9/10/5
f 4/7/6 10/11/6 7/12/6
f 17/13/7 6/4/7 9/10/7
f 5/3/8 4/7/8 7/12/8 8/9/8
f 9/10/9 8/9/9 12/14/9 13/15/9
f 7/12/10 10/16/10 11/17/10
f 17/18/11 9/10/11 13/15/11
f 8/9/12 7/12/12 11/17/12 12/14/12
f 13/19/13 12/20/13 15/21/13 16/22/13
f 11/23/14 10/24/14 14/25/14
f 17/26/15 13/19/15 16/22/15
f 12/20/16 11/23/16 14/25/16 15/21/16
f 16/22/17 15/21/17 2/2/17 3/1/17
f 14/25/18 10/27/18 1/5/18
f 17/28/19 16/22/19 3/1/19
f 15/21/20 14/25/20 1/5/20 2/2/20
