# Blender v2.82 (sub 7) OBJ File: ''
# www.blender.org
o Sphere
v 0.375331 4.524449 0.923880
v 0.544895 4.490721 0.831470
v 0.693520 4.461157 0.707107
v 0.815493 4.436895 0.555570
v 0.906128 4.418867 0.382683
v 0.961940 4.407765 0.195090
v 0.980785 4.404016 0.000000
v 0.961940 4.407765 -0.195090
v 0.906128 4.418867 -0.382683
v 0.815493 4.436895 -0.555570
v 0.693520 4.461157 -0.707107
v 0.180240 4.524449 0.980785
v 0.353554 4.452660 0.923880
v 0.513280 4.386499 0.831470
v 0.653282 4.328509 0.707107
v 0.768178 4.280917 0.555570
v 0.853554 4.245553 0.382683
v 0.906127 4.223777 0.195090
v 0.923880 4.216424 0.000000
v 0.906127 4.223777 -0.195090
v 0.853554 4.245553 -0.382683
v 0.768178 4.280917 -0.555570
v 0.653282 4.328509 -0.707107
v 0.513280 4.386499 -0.831470
v 0.353553 4.452660 -0.923880
v 0.162212 4.490720 0.980785
v 0.318190 4.386499 0.923880
v 0.461940 4.290449 0.831470
v 0.587938 4.206259 0.707107
v 0.691342 4.137167 0.555570
v 0.768178 4.085827 0.382683
v 0.815493 4.054212 0.195090
v 0.831470 4.043537 0.000000
v 0.815493 4.054212 -0.195090
v 0.768178 4.085827 -0.382683
v 0.691342 4.137167 -0.555570
v 0.587938 4.206259 -0.707107
v 0.461940 4.290449 -0.831470
v 0.318190 4.386499 -0.923880
v 0.137950 4.461157 0.980785
v 0.270598 4.328509 0.923880
v 0.392848 4.206259 0.831470
v 0.500000 4.099107 0.707107
v 0.587938 4.011169 0.555570
v 0.653282 3.945826 0.382683
v 0.693520 3.905587 0.195090
v 0.707107 3.892000 0.000000
v 0.693520 3.905587 -0.195090
v 0.653282 3.945826 -0.382683
v 0.587938 4.011169 -0.555570
v 0.500000 4.099107 -0.707107
v 0.392848 4.206259 -0.831470
v 0.270598 4.328509 -0.923880
v 0.137950 4.461157 -0.980785
v 0.108386 4.436895 0.980785
v 0.212608 4.280917 0.923880
v 0.308658 4.137167 0.831470
v 0.392848 4.011169 0.707107
v 0.461940 3.907765 0.555570
v 0.513280 3.830929 0.382683
v 0.544895 3.783614 0.195090
v 0.555570 3.767637 0.000000
v 0.544895 3.783614 -0.195090
v 0.513280 3.830929 -0.382683
v 0.461940 3.907765 -0.555570
v 0.392848 4.011169 -0.707107
v 0.308658 4.137167 -0.831470
v 0.212608 4.280917 -0.923880
v 0.108386 4.436895 -0.980785
v 0.074658 4.418867 0.980785
v 0.146447 4.245553 0.923880
v 0.212608 4.085827 0.831470
v 0.270598 3.945826 0.707107
v 0.318190 3.830929 0.555570
v 0.353553 3.745553 0.382683
v 0.375330 3.692980 0.195090
v 0.382683 3.675227 0.000000
v 0.375330 3.692980 -0.195090
v 0.353553 3.745553 -0.382683
v 0.318190 3.830929 -0.555570
v 0.270598 3.945826 -0.707107
v 0.212608 4.085827 -0.831470
v 0.146447 4.245553 -0.923880
v 0.074658 4.418867 -0.980785
v 0.038060 4.407765 0.980785
v 0.074658 4.223776 0.923880
v 0.108386 4.054212 0.831470
v 0.137950 3.905587 0.707107
v 0.162212 3.783614 0.555570
v 0.180240 3.692980 0.382683
v 0.191342 3.637167 0.195090
v 0.195090 3.618321 0.000000
v 0.191342 3.637167 -0.195090
v 0.180240 3.692980 -0.382683
v 0.162212 3.783614 -0.555570
v 0.137950 3.905587 -0.707107
v 0.108386 4.054212 -0.831470
v 0.074658 4.223777 -0.923880
v 0.038060 4.407765 -0.980785
v -0.000000 4.404016 0.980785
v 0.000000 4.216424 0.923880
v 0.000000 4.043537 0.831470
v -0.000000 3.892000 0.707107
v -0.000000 3.767637 0.555570
v 0.000000 3.675227 0.382683
v -0.000000 3.618322 0.195090
v -0.000000 3.599107 0.000000
v -0.000000 3.618322 -0.195090
v 0.000000 3.675227 -0.382683
v -0.000000 3.767637 -0.555570
v -0.000000 3.892000 -0.707107
v -0.000000 4.043537 -0.831470
v 0.000000 4.216424 -0.923880
v 0.000000 4.404016 -0.980785
v -0.038060 4.407765 0.980785
v -0.074658 4.223777 0.923880
v -0.108386 4.054212 0.831470
v -0.137950 3.905587 0.707107
v -0.162212 3.783614 0.555570
v -0.180240 3.692980 0.382683
v -0.191342 3.637167 0.195090
v -0.195090 3.618322 0.000000
v -0.191342 3.637167 -0.195090
v -0.180240 3.692980 -0.382683
v -0.162212 3.783614 -0.555570
v -0.137950 3.905587 -0.707107
v -0.108386 4.054212 -0.831470
v -0.074658 4.223777 -0.923880
v -0.038060 4.407765 -0.980785
v -0.074658 4.418867 0.980785
v -0.146447 4.245553 0.923880
v -0.212608 4.085827 0.831470
v -0.270598 3.945826 0.707107
v -0.318190 3.830930 0.555570
v -0.353553 3.745553 0.382683
v -0.375330 3.692980 0.195090
v -0.382684 3.675227 0.000000
v -0.375330 3.692980 -0.195090
v -0.353553 3.745553 -0.382683
v -0.318190 3.830930 -0.555570
v -0.270598 3.945826 -0.707107
v -0.212608 4.085827 -0.831470
v -0.146447 4.245553 -0.923880
v -0.074658 4.418867 -0.980785
v -0.108386 4.436895 0.980785
v -0.212608 4.280917 0.923880
v -0.308658 4.137167 0.831470
v -0.392847 4.011169 0.707107
v -0.461940 3.907766 0.555570
v -0.513280 3.830929 0.382683
v -0.544895 3.783614 0.195090
v -0.555570 3.767637 0.000000
v -0.544895 3.783614 -0.195090
v -0.513280 3.830929 -0.382683
v -0.461940 3.907766 -0.555570
v -0.392847 4.011169 -0.707107
v -0.308658 4.137167 -0.831470
v -0.212607 4.280917 -0.923880
v -0.108386 4.436895 -0.980785
v -0.000000 4.599107 1.000000
v -0.137950 4.461157 0.980785
v -0.270598 4.328509 0.923880
v -0.392848 4.206259 0.831470
v -0.500000 4.099107 0.707107
v -0.587938 4.011169 0.555570
v -0.653281 3.945826 0.382683
v -0.693520 3.905587 0.195090
v -0.707107 3.892000 0.000000
v -0.693520 3.905587 -0.195090
v -0.653281 3.945826 -0.382683
v -0.587938 4.011169 -0.555570
v -0.500000 4.099107 -0.707107
v -0.392847 4.206260 -0.831470
v -0.270598 4.328509 -0.923880
v -0.137950 4.461157 -0.980785
v -0.162212 4.490720 0.980785
v -0.318190 4.386499 0.923880
v -0.461940 4.290449 0.831470
v -0.587938 4.206260 0.707107
v -0.691342 4.137167 0.555570
v -0.768178 4.085827 0.382683
v -0.815493 4.054212 0.195090
v -0.831470 4.043537 0.000000
v -0.815493 4.054212 -0.195090
v -0.768178 4.085827 -0.382683
v -0.691342 4.137167 -0.555570
v -0.587938 4.206260 -0.707107
v -0.461940 4.290449 -0.831470
v -0.318190 4.386499 -0.923880
v -0.180240 4.524449 0.980785
v -0.353553 4.452661 0.923880
v -0.513280 4.386499 0.831470
v -0.653281 4.328509 0.707107
v -0.768177 4.280918 0.555570
v -0.853553 4.245553 0.382683
v -0.906127 4.223777 0.195090
v -0.923880 4.216424 0.000000
v -0.906127 4.223777 -0.195090
v -0.853553 4.245553 -0.382683
v -0.768177 4.280918 -0.555570
v -0.653281 4.328509 -0.707107
v -0.513280 4.386499 -0.831470
v -0.353553 4.452661 -0.923880
v -0.191342 4.561047 0.980785
v -0.375330 4.524449 0.923880
v -0.544895 4.490721 0.831470
v -0.693520 4.461157 0.707107
v -0.815493 4.436895 0.555570
v -0.906127 4.418867 0.382683
v -0.961939 4.407765 0.195090
v -0.980785 4.404017 0.000000
v -0.961939 4.407765 -0.195090
v -0.906127 4.418867 -0.382683
v -0.815493 4.436895 -0.555570
v -0.693520 4.461157 -0.707107
v -0.544895 4.490721 -0.831470
vt 0.468750 0.437500
vt 0.468750 0.500000
vt 0.437500 0.500000
vt 0.437500 0.437500
vt 0.468750 0.375000
vt 0.437500 0.375000
vt 0.468750 0.812500
vt 0.468750 0.875000
vt 0.437500 0.875000
vt 0.437500 0.812500
vt 0.468750 0.312500
vt 0.437500 0.312500
vt 0.468750 0.750000
vt 0.437500 0.750000
vt 0.468750 0.250000
vt 0.437500 0.250000
vt 0.468750 0.687500
vt 0.437500 0.687500
vt 0.468750 0.625000
vt 0.437500 0.625000
vt 0.468750 0.562500
vt 0.437500 0.562500
vt 0.437500 0.187500
vt 0.406250 0.250000
vt 0.406250 0.187500
vt 0.406250 0.687500
vt 0.406250 0.625000
vt 0.437500 0.125000
vt 0.406250 0.125000
vt 0.406250 0.562500
vt 0.406250 0.500000
vt 0.406250 0.437500
vt 0.437500 0.937500
vt 0.406250 0.937500
vt 0.406250 0.875000
vt 0.406250 0.375000
vt 0.406250 0.812500
vt 0.406250 0.312500
vt 0.406250 0.750000
vt 0.375000 0.437500
vt 0.375000 0.375000
vt 0.375000 0.875000
vt 0.375000 0.812500
vt 0.375000 0.312500
vt 0.375000 0.750000
vt 0.375000 0.250000
vt 0.375000 0.687500
vt 0.375000 0.187500
vt 0.375000 0.625000
vt 0.375000 0.125000
vt 0.375000 0.562500
vt 0.375000 0.500000
vt 0.375000 0.937500
vt 0.343750 0.187500
vt 0.343750 0.125000
vt 0.343750 0.625000
vt 0.343750 0.562500
vt 0.375000 0.062500
vt 0.343750 0.062500
vt 0.343750 0.500000
vt 0.343750 0.437500
vt 0.343750 0.937500
vt 0.343750 0.875000
vt 0.343750 0.375000
vt 0.343750 0.812500
vt 0.343750 0.312500
vt 0.343750 0.750000
vt 0.343750 0.250000
vt 0.343750 0.687500
vt 0.312500 0.875000
vt 0.312500 0.812500
vt 0.312500 0.375000
vt 0.312500 0.312500
vt 0.312500 0.750000
vt 0.312500 0.250000
vt 0.312500 0.687500
vt 0.312500 0.187500
vt 0.312500 0.625000
vt 0.312500 0.125000
vt 0.312500 0.562500
vt 0.312500 0.062500
vt 0.312500 0.500000
vt 0.312500 0.437500
vt 0.312500 0.937500
vt 0.281250 0.625000
vt 0.281250 0.562500
vt 0.281250 0.125000
vt 0.281250 0.062500
vt 0.281250 0.500000
vt 0.281250 0.437500
vt 0.281250 0.937500
vt 0.281250 0.875000
vt 0.281250 0.375000
vt 0.281250 0.812500
vt 0.281250 0.312500
vt 0.281250 0.750000
vt 0.281250 0.250000
vt 0.281250 0.687500
vt 0.281250 0.187500
vt 0.250000 0.375000
vt 0.250000 0.312500
vt 0.250000 0.812500
vt 0.250000 0.750000
vt 0.250000 0.250000
vt 0.250000 0.687500
vt 0.250000 0.187500
vt 0.250000 0.625000
vt 0.250000 0.125000
vt 0.250000 0.562500
vt 0.250000 0.062500
vt 0.250000 0.500000
vt 0.250000 0.437500
vt 0.250000 0.937500
vt 0.250000 0.875000
vt 0.218750 0.125000
vt 0.218750 0.062500
vt 0.218750 0.562500
vt 0.218750 0.500000
vt 0.234375 1.000000
vt 0.218750 0.937500
vt 0.218750 0.437500
vt 0.218750 0.875000
vt 0.218750 0.375000
vt 0.218750 0.812500
vt 0.218750 0.312500
vt 0.218750 0.750000
vt 0.218750 0.250000
vt 0.218750 0.687500
vt 0.218750 0.187500
vt 0.218750 0.625000
vt 0.187500 0.812500
vt 0.187500 0.750000
vt 0.187500 0.312500
vt 0.187500 0.250000
vt 0.187500 0.687500
vt 0.187500 0.187500
vt 0.187500 0.625000
vt 0.187500 0.125000
vt 0.187500 0.562500
vt 0.187500 0.062500
vt 0.187500 0.500000
vt 0.187500 0.437500
vt 0.187500 0.937500
vt 0.187500 0.875000
vt 0.187500 0.375000
vt 0.156250 0.562500
vt 0.156250 0.500000
vt 0.156250 0.437500
vt 0.156250 0.937500
vt 0.156250 0.875000
vt 0.156250 0.375000
vt 0.156250 0.812500
vt 0.156250 0.312500
vt 0.156250 0.750000
vt 0.156250 0.250000
vt 0.156250 0.687500
vt 0.156250 0.187500
vt 0.156250 0.625000
vt 0.156250 0.125000
vt 0.156250 0.062500
vt 0.125000 0.312500
vt 0.125000 0.250000
vt 0.125000 0.750000
vt 0.125000 0.687500
vt 0.125000 0.187500
vt 0.125000 0.625000
vt 0.125000 0.125000
vt 0.125000 0.562500
vt 0.125000 0.062500
vt 0.125000 0.500000
vt 0.125000 0.437500
vt 0.125000 0.937500
vt 0.125000 0.875000
vt 0.125000 0.375000
vt 0.125000 0.812500
vt 0.093750 0.500000
vt 0.093750 0.437500
vt 0.093750 0.937500
vt 0.093750 0.875000
vt 0.093750 0.375000
vt 0.093750 0.812500
vt 0.093750 0.312500
vt 0.093750 0.750000
vt 0.093750 0.250000
vt 0.093750 0.687500
vt 0.093750 0.187500
vt 0.093750 0.625000
vt 0.093750 0.125000
vt 0.093750 0.562500
vt 0.062500 0.250000
vt 0.062500 0.187500
vt 0.062500 0.687500
vt 0.062500 0.625000
vt 0.062500 0.125000
vt 0.062500 0.562500
vt 0.062500 0.500000
vt 0.062500 0.437500
vt 0.062500 0.937500
vt 0.062500 0.875000
vt 0.062500 0.375000
vt 0.062500 0.812500
vt 0.062500 0.312500
vt 0.062500 0.750000
vt 0.031250 0.937500
vt 0.031250 0.875000
vt 0.031250 0.437500
vt 0.031250 0.375000
vt 0.031250 0.812500
vt 0.031250 0.312500
vt 0.031250 0.750000
vt 0.031250 0.250000
vt 0.031250 0.687500
vt 0.031250 0.187500
vt 0.031250 0.625000
vt 0.031250 0.562500
vt 0.031250 0.500000
vn 0.9524 -0.2889 -0.0976
vn 0.9161 -0.2779 -0.2890
vn 0.4528 -0.1374 0.8810
vn 0.8448 -0.2563 -0.4696
vn 0.6088 -0.1847 0.7715
vn 0.7412 -0.2248 -0.6326
vn 0.7412 -0.2248 0.6326
vn 0.8448 -0.2563 0.4696
vn 0.9161 -0.2779 0.2890
vn 0.9524 -0.2889 0.0976
vn 0.5611 -0.2999 -0.7715
vn 0.7786 -0.4162 0.4696
vn 0.4173 -0.2231 -0.8810
vn 0.8443 -0.4513 0.2890
vn 0.8777 -0.4691 0.0976
vn 0.8777 -0.4691 -0.0976
vn 0.2571 -0.1374 0.9565
vn 0.8443 -0.4513 -0.2890
vn 0.4173 -0.2231 0.8810
vn 0.7786 -0.4162 -0.4696
vn 0.5611 -0.2999 0.7715
vn 0.6831 -0.3651 -0.6326
vn 0.6831 -0.3651 0.6326
vn 0.7400 -0.6073 -0.2890
vn 0.3658 -0.3002 0.8810
vn 0.6825 -0.5601 -0.4696
vn 0.4918 -0.4036 0.7715
vn 0.5987 -0.4913 -0.6326
vn 0.5987 -0.4913 0.6326
vn 0.4918 -0.4036 -0.7715
vn 0.6825 -0.5601 0.4696
vn 0.3658 -0.3002 -0.8810
vn 0.7400 -0.6073 0.2890
vn 0.7693 -0.6314 0.0976
vn 0.7693 -0.6314 -0.0976
vn 0.2254 -0.1850 0.9566
vn 0.3002 -0.3658 -0.8810
vn 0.6073 -0.7400 0.2890
vn 0.1850 -0.2254 -0.9565
vn 0.6314 -0.7693 0.0976
vn 0.6314 -0.7693 -0.0976
vn 0.1850 -0.2254 0.9565
vn 0.6073 -0.7400 -0.2890
vn 0.3002 -0.3658 0.8810
vn 0.5601 -0.6825 -0.4696
vn 0.4036 -0.4918 0.7715
vn 0.4913 -0.5987 -0.6326
vn 0.4913 -0.5987 0.6326
vn 0.4036 -0.4918 -0.7715
vn 0.5601 -0.6825 0.4696
vn 0.2231 -0.4173 0.8810
vn 0.4162 -0.7786 -0.4696
vn 0.2999 -0.5611 0.7715
vn 0.3651 -0.6831 -0.6326
vn 0.3651 -0.6831 0.6326
vn 0.2999 -0.5611 -0.7715
vn 0.4162 -0.7786 0.4696
vn 0.2230 -0.4173 -0.8810
vn 0.4513 -0.8443 0.2890
vn 0.1374 -0.2571 -0.9565
vn 0.4691 -0.8777 0.0976
vn 0.4691 -0.8777 -0.0976
vn 0.1374 -0.2571 0.9565
vn 0.4513 -0.8443 -0.2890
vn 0.2779 -0.9161 0.2890
vn 0.0846 -0.2790 -0.9565
vn 0.2889 -0.9524 0.0976
vn 0.2889 -0.9524 -0.0976
vn 0.0846 -0.2790 0.9565
vn 0.2779 -0.9161 -0.2890
vn 0.1374 -0.4528 0.8810
vn 0.2563 -0.8448 -0.4696
vn 0.1847 -0.6088 0.7715
vn 0.2248 -0.7412 -0.6326
vn 0.2248 -0.7412 0.6326
vn 0.1847 -0.6088 -0.7715
vn 0.2563 -0.8448 0.4696
vn 0.1374 -0.4528 -0.8810
vn 0.0865 -0.8786 -0.4696
vn 0.0624 -0.6332 0.7715
vn 0.0759 -0.7708 -0.6326
vn 0.0759 -0.7708 0.6326
vn 0.0624 -0.6332 -0.7715
vn 0.0865 -0.8786 0.4696
vn 0.0464 -0.4709 -0.8810
vn 0.0938 -0.9527 0.2890
vn 0.0286 -0.2902 -0.9565
vn 0.0975 -0.9904 0.0976
vn 0.0975 -0.9904 -0.0976
vn 0.0286 -0.2902 0.9565
vn 0.0938 -0.9527 -0.2890
vn 0.0464 -0.4709 0.8810
vn -0.0286 -0.2902 -0.9565
vn -0.0976 -0.9904 0.0976
vn -0.0097 -0.0980 0.9951
vn -0.0976 -0.9904 -0.0976
vn -0.0286 -0.2902 0.9565
vn -0.0938 -0.9527 -0.2890
vn -0.0464 -0.4709 0.8810
vn -0.0865 -0.8786 -0.4696
vn -0.0624 -0.6332 0.7715
vn -0.0759 -0.7708 -0.6326
vn -0.0759 -0.7708 0.6326
vn -0.0624 -0.6332 -0.7715
vn -0.0865 -0.8786 0.4696
vn -0.0464 -0.4709 -0.8810
vn -0.0938 -0.9527 0.2890
vn -0.1847 -0.6088 0.7715
vn -0.2248 -0.7412 -0.6326
vn -0.2248 -0.7412 0.6326
vn -0.1847 -0.6088 -0.7715
vn -0.2563 -0.8448 0.4696
vn -0.1374 -0.4528 -0.8810
vn -0.2779 -0.9161 0.2890
vn -0.0846 -0.2790 -0.9565
vn -0.2889 -0.9524 0.0976
vn -0.2889 -0.9524 -0.0976
vn -0.0846 -0.2790 0.9565
vn -0.2779 -0.9161 -0.2890
vn -0.1374 -0.4528 0.8810
vn -0.2563 -0.8448 -0.4696
vn -0.4691 -0.8777 0.0976
vn -0.4691 -0.8777 -0.0976
vn -0.1374 -0.2571 0.9565
vn -0.4513 -0.8443 -0.2890
vn -0.2230 -0.4173 0.8810
vn -0.4162 -0.7786 -0.4696
vn -0.2999 -0.5611 0.7715
vn -0.3651 -0.6831 -0.6326
vn -0.3651 -0.6831 0.6326
vn -0.2999 -0.5611 -0.7715
vn -0.4162 -0.7786 0.4696
vn -0.2231 -0.4173 -0.8810
vn -0.4513 -0.8443 0.2890
vn -0.1374 -0.2571 -0.9565
vn -0.4913 -0.5987 -0.6326
vn -0.4913 -0.5987 0.6326
vn -0.4036 -0.4918 -0.7715
vn -0.5601 -0.6825 0.4696
vn -0.3002 -0.3658 -0.8810
vn -0.6073 -0.7400 0.2890
vn -0.1850 -0.2254 -0.9565
vn -0.6314 -0.7693 0.0976
vn -0.6314 -0.7693 -0.0976
vn -0.1850 -0.2254 0.9565
vn -0.6073 -0.7400 -0.2890
vn -0.3002 -0.3658 0.8810
vn -0.5601 -0.6825 -0.4696
vn -0.4036 -0.4918 0.7715
vn -0.7693 -0.6314 -0.0976
vn -0.2254 -0.1850 0.9565
vn -0.7400 -0.6073 -0.2890
vn -0.3658 -0.3002 0.8810
vn -0.6825 -0.5601 -0.4696
vn -0.4918 -0.4036 0.7715
vn -0.5987 -0.4913 -0.6326
vn -0.5987 -0.4913 0.6326
vn -0.4918 -0.4036 -0.7715
vn -0.6825 -0.5601 0.4696
vn -0.3658 -0.3002 -0.8810
vn -0.7400 -0.6073 0.2890
vn -0.7693 -0.6314 0.0976
vn -0.5611 -0.2999 -0.7715
vn -0.7786 -0.4162 0.4696
vn -0.4173 -0.2230 -0.8810
vn -0.8443 -0.4513 0.2890
vn -0.8777 -0.4691 0.0976
vn -0.8777 -0.4691 -0.0976
vn -0.2571 -0.1374 0.9565
vn -0.8443 -0.4513 -0.2890
vn -0.4173 -0.2230 0.8810
vn -0.7786 -0.4162 -0.4696
vn -0.5611 -0.2999 0.7715
vn -0.6831 -0.3651 -0.6326
vn -0.6831 -0.3651 0.6326
vn -0.2790 -0.0846 0.9565
vn -0.9161 -0.2779 -0.2890
vn -0.4528 -0.1374 0.8810
vn -0.8448 -0.2563 -0.4696
vn -0.6088 -0.1847 0.7715
vn -0.7412 -0.2248 -0.6326
vn -0.7412 -0.2248 0.6326
vn -0.6088 -0.1847 -0.7715
vn -0.8448 -0.2563 0.4696
vn -0.9161 -0.2779 0.2890
vn -0.9524 -0.2889 0.0976
vn -0.9524 -0.2889 -0.0976
s off
f 8/1/1 7/2/1 19/3/1 20/4/1
f 9/5/2 8/1/2 20/4/2 21/6/2
f 2/7/3 1/8/3 13/9/3 14/10/3
f 10/11/4 9/5/4 21/6/4 22/12/4
f 3/13/5 2/7/5 14/10/5 15/14/5
f 11/15/6 10/11/6 22/12/6 23/16/6
f 4/17/7 3/13/7 15/14/7 16/18/7
f 5/19/8 4/17/8 16/18/8 17/20/8
f 6/21/9 5/19/9 17/20/9 18/22/9
f 7/2/10 6/21/10 18/22/10 19/3/10
f 24/23/11 23/16/11 37/24/11 38/25/11
f 17/20/12 16/18/12 30/26/12 31/27/12
f 25/28/13 24/23/13 38/25/13 39/29/13
f 18/22/14 17/20/14 31/27/14 32/30/14
f 19/3/15 18/22/15 32/30/15 33/31/15
f 20/4/16 19/3/16 33/31/16 34/32/16
f 13/9/17 12/33/17 26/34/17 27/35/17
f 21/6/18 20/4/18 34/32/18 35/36/18
f 14/10/19 13/9/19 27/35/19 28/37/19
f 22/12/20 21/6/20 35/36/20 36/38/20
f 15/14/21 14/10/21 28/37/21 29/39/21
f 23/16/22 22/12/22 36/38/22 37/24/22
f 16/18/23 15/14/23 29/39/23 30/26/23
f 35/36/24 34/32/24 48/40/24 49/41/24
f 28/37/25 27/35/25 41/42/25 42/43/25
f 36/38/26 35/36/26 49/41/26 50/44/26
f 29/39/27 28/37/27 42/43/27 43/45/27
f 37/24/28 36/38/28 50/44/28 51/46/28
f 30/26/29 29/39/29 43/45/29 44/47/29
f 38/25/30 37/24/30 51/46/30 52/48/30
f 31/27/31 30/26/31 44/47/31 45/49/31
f 39/29/32 38/25/32 52/48/32 53/50/32
f 32/30/33 31/27/33 45/49/33 46/51/33
f 33/31/34 32/30/34 46/51/34 47/52/34
f 34/32/35 33/31/35 47/52/35 48/40/35
f 27/35/36 26/34/36 40/53/36 41/42/36
f 53/50/37 52/48/37 67/54/37 68/55/37
f 46/51/38 45/49/38 60/56/38 61/57/38
f 54/58/39 53/50/39 68/55/39 69/59/39
f 47/52/40 46/51/40 61/57/40 62/60/40
f 48/40/41 47/52/41 62/60/41 63/61/41
f 41/42/42 40/53/42 55/62/42 56/63/42
f 49/41/43 48/40/43 63/61/43 64/64/43
f 42/43/44 41/42/44 56/63/44 57/65/44
f 50/44/45 49/41/45 64/64/45 65/66/45
f 43/45/46 42/43/46 57/65/46 58/67/46
f 51/46/47 50/44/47 65/66/47 66/68/47
f 44/47/48 43/45/48 58/67/48 59/69/48
f 52/48/49 51/46/49 66/68/49 67/54/49
f 45/49/50 44/47/50 59/69/50 60/56/50
f 57/65/51 56/63/51 71/70/51 72/71/51
f 65/66/52 64/64/52 79/72/52 80/73/52
f 58/67/53 57/65/53 72/71/53 73/74/53
f 66/68/54 65/66/54 80/73/54 81/75/54
f 59/69/55 58/67/55 73/74/55 74/76/55
f 67/54/56 66/68/56 81/75/56 82/77/56
f 60/56/57 59/69/57 74/76/57 75/78/57
f 68/55/58 67/54/58 82/77/58 83/79/58
f 61/57/59 60/56/59 75/78/59 76/80/59
f 69/59/60 68/55/60 83/79/60 84/81/60
f 62/60/61 61/57/61 76/80/61 77/82/61
f 63/61/62 62/60/62 77/82/62 78/83/62
f 56/63/63 55/62/63 70/84/63 71/70/63
f 64/64/64 63/61/64 78/83/64 79/72/64
f 76/80/65 75/78/65 90/85/65 91/86/65
f 84/81/66 83/79/66 98/87/66 99/88/66
f 77/82/67 76/80/67 91/86/67 92/89/67
f 78/83/68 77/82/68 92/89/68 93/90/68
f 71/70/69 70/84/69 85/91/69 86/92/69
f 79/72/70 78/83/70 93/90/70 94/93/70
f 72/71/71 71/70/71 86/92/71 87/94/71
f 80/73/72 79/72/72 94/93/72 95/95/72
f 73/74/73 72/71/73 87/94/73 88/96/73
f 81/75/74 80/73/74 95/95/74 96/97/74
f 74/76/75 73/74/75 88/96/75 89/98/75
f 82/77/76 81/75/76 96/97/76 97/99/76
f 75/78/77 74/76/77 89/98/77 90/85/77
f 83/79/78 82/77/78 97/99/78 98/87/78
f 95/95/79 94/93/79 109/100/79 110/101/79
f 88/96/80 87/94/80 102/102/80 103/103/80
f 96/97/81 95/95/81 110/101/81 111/104/81
f 89/98/82 88/96/82 103/103/82 104/105/82
f 97/99/83 96/97/83 111/104/83 112/106/83
f 90/85/84 89/98/84 104/105/84 105/107/84
f 98/87/85 97/99/85 112/106/85 113/108/85
f 91/86/86 90/85/86 105/107/86 106/109/86
f 99/88/87 98/87/87 113/108/87 114/110/87
f 92/89/88 91/86/88 106/109/88 107/111/88
f 93/90/89 92/89/89 107/111/89 108/112/89
f 86/92/90 85/91/90 100/113/90 101/114/90
f 94/93/91 93/90/91 108/112/91 109/100/91
f 87/94/92 86/92/92 101/114/92 102/102/92
f 114/110/93 113/108/93 128/115/93 129/116/93
f 107/111/94 106/109/94 121/117/94 122/118/94
f 100/113/95 160/119/95 115/120/95
f 108/112/96 107/111/96 122/118/96 123/121/96
f 101/114/97 100/113/97 115/120/97 116/122/97
f 109/100/98 108/112/98 123/121/98 124/123/98
f 102/102/99 101/114/99 116/122/99 117/124/99
f 110/101/100 109/100/100 124/123/100 125/125/100
f 103/103/101 102/102/101 117/124/101 118/126/101
f 111/104/102 110/101/102 125/125/102 126/127/102
f 104/105/103 103/103/103 118/126/103 119/128/103
f 112/106/104 111/104/104 126/127/104 127/129/104
f 105/107/105 104/105/105 119/128/105 120/130/105
f 113/108/106 112/106/106 127/129/106 128/115/106
f 106/109/107 105/107/107 120/130/107 121/117/107
f 118/126/108 117/124/108 132/131/108 133/132/108
f 126/127/109 125/125/109 140/133/109 141/134/109
f 119/128/110 118/126/110 133/132/110 134/135/110
f 127/129/111 126/127/111 141/134/111 142/136/111
f 120/130/112 119/128/112 134/135/112 135/137/112
f 128/115/113 127/129/113 142/136/113 143/138/113
f 121/117/114 120/130/114 135/137/114 136/139/114
f 129/116/115 128/115/115 143/138/115 144/140/115
f 122/118/116 121/117/116 136/139/116 137/141/116
f 123/121/117 122/118/117 137/141/117 138/142/117
f 116/122/118 115/120/118 130/143/118 131/144/118
f 124/123/119 123/121/119 138/142/119 139/145/119
f 117/124/120 116/122/120 131/144/120 132/131/120
f 125/125/121 124/123/121 139/145/121 140/133/121
f 137/141/122 136/139/122 151/146/122 152/147/122
f 138/142/123 137/141/123 152/147/123 153/148/123
f 131/144/124 130/143/124 145/149/124 146/150/124
f 139/145/125 138/142/125 153/148/125 154/151/125
f 132/131/126 131/144/126 146/150/126 147/152/126
f 140/133/127 139/145/127 154/151/127 155/153/127
f 133/132/128 132/131/128 147/152/128 148/154/128
f 141/134/129 140/133/129 155/153/129 156/155/129
f 134/135/130 133/132/130 148/154/130 149/156/130
f 142/136/131 141/134/131 156/155/131 157/157/131
f 135/137/132 134/135/132 149/156/132 150/158/132
f 143/138/133 142/136/133 157/157/133 158/159/133
f 136/139/134 135/137/134 150/158/134 151/146/134
f 144/140/135 143/138/135 158/159/135 159/160/135
f 156/155/136 155/153/136 171/161/136 172/162/136
f 149/156/137 148/154/137 164/163/137 165/164/137
f 157/157/138 156/155/138 172/162/138 173/165/138
f 150/158/139 149/156/139 165/164/139 166/166/139
f 158/159/140 157/157/140 173/165/140 174/167/140
f 151/146/141 150/158/141 166/166/141 167/168/141
f 159/160/142 158/159/142 174/167/142 175/169/142
f 152/147/143 151/146/143 167/168/143 168/170/143
f 153/148/144 152/147/144 168/170/144 169/171/144
f 146/150/145 145/149/145 161/172/145 162/173/145
f 154/151/146 153/148/146 169/171/146 170/174/146
f 147/152/147 146/150/147 162/173/147 163/175/147
f 155/153/148 154/151/148 170/174/148 171/161/148
f 148/154/149 147/152/149 163/175/149 164/163/149
f 169/171/150 168/170/150 183/176/150 184/177/150
f 162/173/151 161/172/151 176/178/151 177/179/151
f 170/174/152 169/171/152 184/177/152 185/180/152
f 163/175/153 162/173/153 177/179/153 178/181/153
f 171/161/154 170/174/154 185/180/154 186/182/154
f 164/163/155 163/175/155 178/181/155 179/183/155
f 172/162/156 171/161/156 186/182/156 187/184/156
f 165/164/157 164/163/157 179/183/157 180/185/157
f 173/165/158 172/162/158 187/184/158 188/186/158
f 166/166/159 165/164/159 180/185/159 181/187/159
f 174/167/160 173/165/160 188/186/160 189/188/160
f 167/168/161 166/166/161 181/187/161 182/189/161
f 168/170/162 167/168/162 182/189/162 183/176/162
f 188/186/163 187/184/163 201/190/163 202/191/163
f 181/187/164 180/185/164 194/192/164 195/193/164
f 189/188/165 188/186/165 202/191/165 203/194/165
f 182/189/166 181/187/166 195/193/166 196/195/166
f 183/176/167 182/189/167 196/195/167 197/196/167
f 184/177/168 183/176/168 197/196/168 198/197/168
f 177/179/169 176/178/169 190/198/169 191/199/169
f 185/180/170 184/177/170 198/197/170 199/200/170
f 178/181/171 177/179/171 191/199/171 192/201/171
f 186/182/172 185/180/172 199/200/172 200/202/172
f 179/183/173 178/181/173 192/201/173 193/203/173
f 187/184/174 186/182/174 200/202/174 201/190/174
f 180/185/175 179/183/175 193/203/175 194/192/175
f 191/199/176 190/198/176 204/204/176 205/205/176
f 199/200/177 198/197/177 212/206/177 213/207/177
f 192/201/178 191/199/178 205/205/178 206/208/178
f 200/202/179 199/200/179 213/207/179 214/209/179
f 193/203/180 192/201/180 206/208/180 207/210/180
f 201/190/181 200/202/181 214/209/181 215/211/181
f 194/192/182 193/203/182 207/210/182 208/212/182
f 202/191/183 201/190/183 215/211/183 216/213/183
f 195/193/184 194/192/184 208/212/184 209/214/184
f 196/195/185 195/193/185 209/214/185 210/215/185
f 197/196/186 196/195/186 210/215/186 211/216/186
f 198/197/187 197/196/187 211/216/187 212/206/187
